/* XPM */
static char *_eb314e49b124c3f8a9927971c2ceef9HCtR294htrVHlJxR[] = {
/* columns rows colors chars-per-pixel */
"64 64 15 1 ",
"  c None",
". c #621C2D",
"X c #4D1C2D",
"o c #732530",
"O c #57212E",
"+ c #411F30",
"@ c #4D2134",
"# c white",
"$ c #2E1C2C",
"% c #CB1E31",
"& c #FFA990",
"* c #FF8282",
"= c #FF3838",
"- c #8D2C44",
"; c white",
/* pixels */
"                                                                ",
"                                                                ",
"                                                                ",
"                 ..  $$$$$$$$$$$$$$$$$$$$$$$$  ..               ",
"                 ..  $$$$$$$$$$$$$$$$$$$$$$$$  ..               ",
"                   XX$$$$$$$$$$$$$$$$$$$$$$$$XX                 ",
"                   XX$$$$$$$$$$$$$$$$$$$$$$$$XX                 ",
"             oo  $$$$%%%%&&&&****====%%%%%%%%$$$$  ..           ",
"             oo  $$$$%%%%&&&&****====%%%%%%%%$$$$  ..           ",
"               OO$$$$%%%%&&&&****====%%%%%%%%$$$$XX             ",
"               OO$$$$%%%%&&&&****====%%%%%%%%$$$$XX             ",
"             $$$$====&&&&%%%%%%%%%%%%%%%%****%%%%$$$$           ",
"             $$$$====&&&&%%%%%%%%%%%%%%%%****%%%%$$$$           ",
"             $$$$====&&&&%%%%%%%%%%%%%%%%****%%%%$$$$           ",
"             $$$$====&&&&%%%%%%%%%%%%%%%%****%%%%$$$$           ",
"             $$$$========%%%%&&&&****----%%%%====$$$$           ",
"             $$$$========%%%%&&&&****----%%%%====$$$$           ",
"             $$$$========%%%%&&&&****----%%%%====$$$$           ",
"             $$$$========%%%%&&&&****----%%%%====$$$$           ",
"             $$$$&&&&%%%%&&&&********====%%%%====$$$$           ",
"             $$$$&&&&%%%%&&&&********====%%%%====$$$$           ",
"             $$$$&&&&%%%%&&&&********====%%%%====$$$$           ",
"             $$$$&&&&%%%%&&&&********====%%%%====$$$$           ",
"             $$$$****%%%%&&&&****========%%%%====$$$$           ",
"             $$$$****%%%%&&&&****========%%%%====$$$$           ",
"             $$$$****%%%%&&&&****========%%%%====$$$$           ",
"             $$$$****%%%%&&&&****========%%%%====$$$$           ",
"             $$$$****%%%%&&&&****%%%%====%%%%&&&&$$$$           ",
"             $$$$****%%%%&&&&****%%%%====%%%%&&&&$$$$           ",
"             $$$$****%%%%&&&&****%%%%====%%%%&&&&$$$$           ",
"             $$$$****%%%%&&&&****%%%%====%%%%&&&&$$$$           ",
"             $$$$****%%%%********%%%%====%%%%&&&&$$$$           ",
"             $$$$****%%%%********%%%%====%%%%&&&&$$$$           ",
"             $$$$****%%%%********%%%%====%%%%&&&&$$$$           ",
"             $$$$****%%%%********%%%%====%%%%&&&&$$$$           ",
"             $$$$====%%%%****============%%%%====$$$$           ",
"             $$$$====%%%%****============%%%%====$$$$           ",
"             $$$$====%%%%****============%%%%====$$$$           ",
"             $$$$====%%%%****============%%%%====$$$$           ",
"             $$$$====%%%%****%%%%========%%%%====$$$$           ",
"             $$$$====%%%%****%%%%========%%%%====$$$$           ",
"             $$$$====%%%%****%%%%========%%%%====$$$$           ",
"             $$$$====%%%%****%%%%========%%%%====$$$$           ",
"             $$$$%%%%====****========****%%%%%%%%$$$$           ",
"             $$$$%%%%====****========****%%%%%%%%$$$$           ",
"             $$$$%%%%====****========****%%%%%%%%$$$$           ",
"             $$$$%%%%====****========****%%%%%%%%$$$$           ",
"             $$$$====----%%%%********--------%%%%$$$$           ",
"             $$$$====----%%%%********--------%%%%$$$$           ",
"             $$$$====----%%%%********--------%%%%$$$$           ",
"             $$$$====----%%%%********--------%%%%$$$$           ",
"               OO$$$$----========%%%%----====$$$$XX             ",
"               OO$$$$----========%%%%----====$$$$XX             ",
"             oo  $$$$----========%%%%----====$$$$  ..           ",
"             oo  $$$$----========%%%%----====$$$$  ..           ",
"                   ++$$$$$$$$$$$$$$$$$$$$$$$$OO                 ",
"                   ++$$$$$$$$$$$$$$$$$$$$$$$$OO                 ",
"                 @@  $$$$$$$$$$$$$$$$$$$$$$$$  oo               ",
"                 @@  $$$$$$$$$$$$$$$$$$$$$$$$  oo               ",
"#################                                ###############",
"#################                                ###############",
"#################                                ###############",
"#################                                ###############",
"                                                                "
};
