/* XPM */
static char *_3781e955ca94a51bda295ff9deaaa32rE25ajP405u7dtHd[] = {
/* columns rows colors chars-per-pixel */
"64 64 25 1 ",
"  c None",
". c #734335",
"X c #322132",
"o c #573331",
"O c #312031",
"+ c #332334",
"@ c #73451D",
"# c #573423",
"$ c #4D1C2D",
"% c #621C2D",
"& c #532B2E",
"* c #6C3530",
"= c #411F30",
"- c #452032",
"; c #4D2134",
": c #2E1C2C",
"> c #FF9148",
", c #B64336",
"< c #8D2C44",
"1 c #3F3245",
"2 c #E86838",
"3 c #FF9700",
"4 c #FF3838",
"5 c #CB1E31",
"6 c white",
/* pixels */
"                                                                ",
"                                                                ",
"                                                                ",
"                                                                ",
"       ..  ::::::::::::::::::::::::::::::::  XX                 ",
"       ..  ::::::::::::::::::::::::::::::::  XX                 ",
"         oo::::::::::::::::::::::::::::::::OO                   ",
"         oo::::::::::::::::::::::::::::::::OO                   ",
"       ::::>>>>,,,,>>>>,,,,>>>><<<<11111111::::::::  XX         ",
"       ::::>>>>,,,,>>>>,,,,>>>><<<<11111111::::::::  XX         ",
"       ::::>>>>,,,,>>>>,,,,>>>><<<<11111111::::::::OO           ",
"       ::::>>>>,,,,>>>>,,,,>>>><<<<11111111::::::::OO           ",
"       ::::2222<<<<,,,,<<<<::::::::1111111111111111::::::::  ++ ",
"       ::::2222<<<<,,,,<<<<::::::::1111111111111111::::::::  ++ ",
"       ::::2222<<<<,,,,<<<<::::::::1111111111111111::::::::OO   ",
"       ::::2222<<<<,,,,<<<<::::::::1111111111111111::::::::OO   ",
"       ::::2222<<<<2222::::33333333::::11111111111111111111:::: ",
"       ::::2222<<<<2222::::33333333::::11111111111111111111:::: ",
"       ::::2222<<<<2222::::33333333::::11111111111111111111:::: ",
"       ::::2222<<<<2222::::33333333::::11111111111111111111:::: ",
"@  ::::::::::::::::::::::::444444443333::::1111111111111111:::: ",
"@  ::::::::::::::::::::::::444444443333::::1111111111111111:::: ",
" ##::::::::::::::::::::::::444444443333::::1111111111111111:::: ",
" ##::::::::::::::::::::::::444444443333::::1111111111111111:::: ",
":::3333333333333333333333334444444444443333::::111111111111:::: ",
":::3333333333333333333333334444444444443333::::111111111111:::: ",
":::3333333333333333333333334444444444443333::::111111111111:::: ",
":::3333333333333333333333334444444444443333::::111111111111:::: ",
":::55554444444444444444444444444444444444443333::::11111111:::: ",
":::55554444444444444444444444444444444444443333::::11111111:::: ",
":::55554444444444444444444444444444444444443333::::11111111:::: ",
":::55554444444444444444444444444444444444443333::::11111111:::: ",
":::55554444444444444444444444444444444444445555::::11111111:::: ",
":::55554444444444444444444444444444444444445555::::11111111:::: ",
":::55554444444444444444444444444444444444445555::::11111111:::: ",
":::55554444444444444444444444444444444444445555::::11111111:::: ",
":::5555555555555555555555554444444444445555::::111111111111:::: ",
":::5555555555555555555555554444444444445555::::111111111111:::: ",
":::5555555555555555555555554444444444445555::::111111111111:::: ",
":::5555555555555555555555554444444444445555::::111111111111:::: ",
" $$::::::::::::::::::::::::555544445555::::1111111111111111:::: ",
" $$::::::::::::::::::::::::555544445555::::1111111111111111:::: ",
"%  ::::::::::::::::::::::::555544445555::::1111111111111111:::: ",
"%  ::::::::::::::::::::::::555544445555::::1111111111111111:::: ",
"       ::::2222<<<<2222::::55555555::::<<<<<<<<111111111111:::: ",
"       ::::2222<<<<2222::::55555555::::<<<<<<<<111111111111:::: ",
"       ::::2222<<<<2222::::55555555::::<<<<<<<<111111111111:::: ",
"       ::::2222<<<<2222::::55555555::::<<<<<<<<111111111111:::: ",
"       ::::2222<<<<,,,,<<<<::::::::<<<<<<<<<<<<<<<<<<<<1111:::: ",
"       ::::2222<<<<,,,,<<<<::::::::<<<<<<<<<<<<<<<<<<<<1111:::: ",
"       ::::2222<<<<,,,,<<<<::::::::<<<<<<<<<<<<<<<<<<<<1111:::: ",
"       ::::2222<<<<,,,,<<<<::::::::<<<<<<<<<<<<<<<<<<<<1111:::: ",
"         &&::::::::::::::::::::::::::::::::<<<<<<<<<<<<<<<<:::: ",
"         &&::::::::::::::::::::::::::::::::<<<<<<<<<<<<<<<<:::: ",
"       **  ::::::::::::::::::::::::::::::::<<<<<<<<<<<<<<<<:::: ",
"       **  ::::::::::::::::::::::::::::::::<<<<<<<<<<<<<<<<:::: ",
"                                         ==::::::::<<<<<<<<:::: ",
"                                         ==::::::::<<<<<<<<:::: ",
"                                       --  ::::::::<<<<<<<<:::: ",
"                                       --  ::::::::<<<<<<<<:::: ",
"                                                 ==::::::::==   ",
"                                                 ==::::::::==   ",
"                                               --  ::::::::  ;; ",
"                                               --  ::::::::  ;; "
};
