/* XPM */
static char *de6da72d3135445dc8a10ccd5073d101zgB8DGUMS0HY8QOB[] = {
/* columns rows colors chars-per-pixel */
"64 64 17 1 ",
"  c None",
". c #1E433D",
"X c #223939",
"o c #243336",
"O c #3F5C3D",
"+ c #384236",
"@ c #1E5142",
"# c #243C39",
"$ c #22443C",
"% c #3A4C39",
"& c #2E1C2C",
"* c #009160",
"= c #254D48",
"- c #00BD6F",
"; c #61DC60",
": c #4C303F",
"> c white",
/* pixels */
"                                                                ",
"                                                                ",
"                                                                ",
"                     ..  &&&&&&&&&&&&  XX                       ",
"                     ..  &&&&&&&&&&&&  XX                       ",
"                       oo&&&&&&&&&&&&oo                         ",
"                       oo&&&&&&&&&&&&oo                         ",
"                 ..  &&&&************&&&&&&&&  OO               ",
"                 ..  &&&&************&&&&&&&&  OO               ",
"                   oo&&&&************&&&&&&&&++                 ",
"                   oo&&&&************&&&&&&&&++                 ",
"                 &&&&********====--------;;;;&&&&  @@           ",
"                 &&&&********====--------;;;;&&&&  @@           ",
"                 &&&&********====--------;;;;&&&&##             ",
"                 &&&&********====--------;;;;&&&&##             ",
"             $$  &&&&====--------;;;;;;;;--------&&&&  ..       ",
"             $$  &&&&====--------;;;;;;;;--------&&&&  ..       ",
"               ##&&&&====--------;;;;;;;;--------&&&&oo         ",
"               ##&&&&====--------;;;;;;;;--------&&&&oo         ",
"             &&&&--------;;;;;;;;;;;;--------********&&&&  ..   ",
"             &&&&--------;;;;;;;;;;;;--------********&&&&  ..   ",
"             &&&&--------;;;;;;;;;;;;--------********&&&&oo     ",
"             &&&&--------;;;;;;;;;;;;--------********&&&&oo     ",
"         %%  &&&&----;;;;;;;;;;;;--------****************&&&&   ",
"         %%  &&&&----;;;;;;;;;;;;--------****************&&&&   ",
"           ++&&&&----;;;;;;;;;;;;--------****************&&&&   ",
"           ++&&&&----;;;;;;;;;;;;--------****************&&&&   ",
"     ..  &&&&;;;;;;;;--------------------************----&&&&   ",
"     ..  &&&&;;;;;;;;--------------------************----&&&&   ",
"       oo&&&&;;;;;;;;--------------------************----&&&&   ",
"       oo&&&&;;;;;;;;--------------------************----&&&&   ",
" ..  &&&&****::::;;;;----;;;;----****----********;;;;&&&&##     ",
" ..  &&&&****::::;;;;----;;;;----****----********;;;;&&&&##     ",
"   oo&&&&****::::;;;;----;;;;----****----********;;;;&&&&  $$   ",
"   oo&&&&****::::;;;;----;;;;----****----********;;;;&&&&  $$   ",
" &&&&****&&&&--------;;;;::::********&&&&&&&&--------&&&&  $$   ",
" &&&&****&&&&--------;;;;::::********&&&&&&&&--------&&&&  $$   ",
" &&&&****&&&&--------;;;;::::********&&&&&&&&--------&&&&##     ",
" &&&&****&&&&--------;;;;::::********&&&&&&&&--------&&&&##     ",
" &&&&****&&&&----------------********&&&&&&&&----&&&&----&&&&   ",
" &&&&****&&&&----------------********&&&&&&&&----&&&&----&&&&   ",
" &&&&****&&&&----------------********&&&&&&&&----&&&&----&&&&   ",
" &&&&****&&&&----------------********&&&&&&&&----&&&&----&&&&   ",
"   oo&&&&----&&&&************&&&&&&&&****&&&&&&&&####&&&&##     ",
"   oo&&&&----&&&&************&&&&&&&&****&&&&&&&&####&&&&##     ",
" ..  &&&&----&&&&************&&&&&&&&****&&&&&&&&    &&&&  @@   ",
" ..  &&&&----&&&&************&&&&&&&&****&&&&&&&&    &&&&  @@   ",
"       ##&&&&##oo&&&&&&&&&&&&&&&&****&&&&oo                     ",
"       ##&&&&##oo&&&&&&&&&&&&&&&&****&&&&oo                     ",
"     @@  &&&&    &&&&&&&&&&&&&&&&****&&&&##                     ",
"     @@  &&&&    &&&&&&&&&&&&&&&&****&&&&##                     ",
"                         &&&&----&&&&----&&&&                   ",
"                         &&&&----&&&&----&&&&                   ",
"                         &&&&----&&&&----&&&&                   ",
"                         &&&&----&&&&----&&&&                   ",
"                           ##&&&&####&&&&##                     ",
"                           ##&&&&####&&&&##                     ",
"                         @@  &&&&    &&&&  @@                   ",
"                         @@  &&&&    &&&&  @@                   ",
"                                                                ",
"                                                                ",
"                                                                ",
"                                                                ",
"                                                                "
};
