/* XPM */
static char *aaf1715facf047aae7937e57b243607dyMKXu8FjOwWwWjTe[] = {
/* columns rows colors chars-per-pixel */
"64 64 42 1 ",
"  c None",
". c white",
"X c #00AF41",
"o c #009E38",
"O c #3FA065",
"+ c #008D30",
"@ c #007029",
"# c #00632A",
"$ c #00562C",
"% c #007333",
"& c #00913A",
"* c #20BE4B",
"= c #40CD55",
"- c #61DC60",
"; c #D7F6D7",
": c #40AF4E",
"> c #4DC155",
", c #86718C",
"< c #8D8FA0",
"1 c #20AD43",
"2 c #40BC4D",
"3 c #8B8599",
"4 c #208F3C",
"5 c #209C3A",
"6 c #68546C",
"7 c #4B384C",
"8 c #2E1C2C",
"9 c #20A044",
"0 c #30C550",
"q c #309946",
"w c #20823D",
"e c #26C14D",
"r c #008236",
"t c #248844",
"y c #323F46",
"u c #1B2A34",
"i c #49A051",
"p c #00AF41",
"a c #007D28",
"s c #00562C",
"d c #61DC60",
"f c white",
/* pixels */
" ....XXXXXXXXXXXXXXXXooooOO.....................................",
" ....XXXXXXXXXXXXXXXXooooOO.....................................",
" ....XXXXXXXXXXXXXXXXXXoo++@@##$$$$%%&&XXXX**==------------;;...",
" ....XXXXXXXXXXXXXXXXXXoo++@@##$$$$%%&&XXXX**==------------;;...",
".XXXXXXXXppppppppppppppppaaaassssssssppppppppdddddddddddd--::---",
".XXXXXXXXppppppppppppppppaaaassssssssppppppppdddddddddddd--::---",
".XXXXXXXXppppppppppppppppaaaassssssssppppppppdddddddddddd>>-----",
".XXXXXXXXppppppppppppppppaaaassssssssppppppppdddddddddddd>>-----",
".XXXXppppppppddddddddddddppppssssssssppppddddaaaaaaaassssdddd---",
".XXXXppppppppddddddddddddppppssssssssppppddddaaaaaaaassssdddd---",
".XXXXppppppppddddddddddddppppssssssssppppddddaaaaaaaassssdddd---",
".XXXXppppppppddddddddddddppppssssssssppppddddaaaaaaaassssdddd---",
".XXXXppppddddaaaaaaaassssddddppppppppppppppppaaaassssssssdddd--=",
".XXXXppppddddaaaaaaaassssddddppppppppppppppppaaaassssssssdddd--=",
".XXXXppppddddaaaaaaaassssddddppppppppppppppppaaaassssssssdddd===",
".XXXXppppddddaaaaaaaassssddddppppppppppppppppaaaassssssssdddd===",
",**XXppppppppaaaassssssssddddppppddddddddddddppppsssssssspppp***",
",**XXppppppppaaaassssssssddddppppddddddddddddppppsssssssspppp***",
",****ppppppppaaaassssssssddddppppddddddddddddppppssssssssppppXX*",
",****ppppppppaaaassssssssddddppppddddddddddddppppssssssssppppXX*",
"<11==ddddddddppppssssssssppppddddaaaaaaaassssddddppppppppppppXX*",
"<11==ddddddddppppssssssssppppddddaaaaaaaassssddddppppppppppppXX*",
"<1122ddddddddppppssssssssppppddddaaaaaaaassssddddpppppppppppp***",
"<1122ddddddddppppssssssssppppddddaaaaaaaassssddddpppppppppppp***",
"34455aaaassssddddppppppppppppppppaaaassssssssddddppppdddddddd==1",
"34455aaaassssddddppppppppppppppppaaaassssssssddddppppdddddddd==1",
"344@@aaaassssddddppppppppppppppppaaaassssssssddddppppdddddddd221",
"344@@aaaassssddddppppppppppppppppaaaassssssssddddppppdddddddd221",
"3####ssssssssddddppppddddddddddddppppssssssssppppddddaaaaaaaa554",
"3####ssssssssddddppppddddddddddddppppssssssssppppddddaaaaaaaa554",
"3##$$ssssssssddddppppddddddddddddppppssssssssppppddddaaaaaaaa@@4",
"3##$$ssssssssddddppppddddddddddddppppssssssssppppddddaaaaaaaa@@4",
"6%%$$ssssssssppppddddaaaaaaaassssddddppppppppppppppppaaaassss###",
"6%%$$ssssssssppppddddaaaaaaaassssddddppppppppppppppppaaaassss###",
"6%%%%ssssssssppppddddaaaaaaaassssddddppppppppppppppppaaaassss$$#",
"6%%%%ssssssssppppddddaaaaaaaassssddddppppppppppppppppaaaassss$$#",
"7&&&&ppppppppppppppppaaaassssssssddddppppddddddddddddppppssss$$%",
"7&&&&ppppppppppppppppaaaassssssssddddppppddddddddddddppppssss$$%",
"7&&XXppppppppppppppppaaaassssssssddddppppddddddddddddppppssss%%%",
"7&&XXppppppppppppppppaaaassssssssddddppppddddddddddddppppssss%%%",
"8**XXppppddddddddddddppppssssssssppppddddaaaaaaaassssddddpppp&&&",
"8**XXppppddddddddddddppppssssssssppppddddaaaaaaaassssddddpppp&&&",
"8****ppppddddddddddddppppssssssssppppddddaaaaaaaassssddddppppXX&",
"8****ppppddddddddddddppppssssssssppppddddaaaaaaaassssddddppppXX&",
"8**==ddddaaaaaaaassssddddppppppppppppppppaaaassssssssddddppppXX*",
"8**==ddddaaaaaaaassssddddppppppppppppppppaaaassssssssddddppppXX*",
"8**==ddddaaaaaaaassssddddppppppppppppppppaaaassssssssddddpppp***",
"8**==ddddaaaaaaaassssddddppppppppppppppppaaaassssssssddddpppp***",
".==**ppppaaaassssssssddddppppddddddddddddppppssssssssppppdddd==*",
".==**ppppaaaassssssssddddppppddddddddddddppppssssssssppppdddd==*",
".==**ppppaaaassssssssddddppppddddddddddddppppssssssssppppdddd==*",
".==**ppppaaaassssssssddddppppddddddddddddppppssssssssppppdddd==*",
".99==ddddppppssssssssppppddddaaaaaaaassssddddpppppppppppppppp**0",
".99==ddddppppssssssssppppddddaaaaaaaassssddddpppppppppppppppp**0",
".99::ddddppppssssssssppppddddaaaaaaaassssddddppppppppppppppppXX0",
".99::ddddppppssssssssppppddddaaaaaaaassssddddppppppppppppppppXX0",
".qqwwssssppppddddppppppppppppaaaassssssssddddppppddddddddeeXXXXX",
".qqwwssssppppddddppppppppppppaaaassssssssddddppppddddddddeeXXXXX",
".qq$$ssssppppddddppppppppppppaaaassssssssddddppppdddddddd--**XXX",
".qq$$ssssppppddddppppppppppppaaaassssssssddddppppdddddddd--**XXX",
".$$$$$$%%&&**====**XXXXXXXXoo++@@##$$$$ww::==****==----------   ",
".$$$$$$%%&&**====**XXXXXXXXoo++@@##$$$$ww::==****==----------   ",
".$$$$rrrrttyyyyyyyyyyyyuuuuuuuuuuuuuuuuuuuuuuuuuuuuuuuuii----   ",
".$$$$rrrrttyyyyyyyyyyyyuuuuuuuuuuuuuuuuuuuuuuuuuuuuuuuuii----   "
};
