/* XPM */
static char *c4df09a161524bf799eba4da4860d6710jEuSAl2HeJ9kj5w[] = {
/* columns rows colors chars-per-pixel */
"64 64 27 1 ",
"  c None",
". c #2E1C2C",
"X c #005A4A",
"o c #5B4446",
"O c #553641",
"+ c #49343B",
"@ c #452C38",
"# c #B5957A",
"$ c #412E3F",
"% c #332334",
"& c #392737",
"* c #312031",
"= c #3C2A3A",
"- c #322132",
"; c #B64336",
": c #2D1B24",
"> c #2C180D",
", c #2C1917",
"< c #2D1A21",
"1 c #4D311D",
"2 c #2E1C2C",
"3 c #B5957A",
"4 c #A56C6C",
"5 c #675466",
"6 c #3F3245",
"7 c #2C180D",
"8 c white",
/* pixels */
"                   ........................                     ",
"                   ........................                     ",
"                   ........................                     ",
"XXXXXXXXXXXXXXXXXXX....oo..222222222222..OO....XXXXXXXXXXXXXXXXX",
"XXXXXXXXXXXXXXXXXXX....oo..222222222222..OO....XXXXXXXXXXXXXXXXX",
"XXXXXXXXXXXXXXXXXXX......++222222222222@@......XXXXXXXXXXXXXXXXX",
"XXXXXXXXXXXXXXXXXXX......++222222222222@@......XXXXXXXXXXXXXXXXX",
"###############....OO..22223333333344442222............XXXXXXXXX",
"###############....OO..22223333333344442222............XXXXXXXXX",
"###############......@@22223333333344442222............XXXXXXXXX",
"###############......@@22223333333344442222............XXXXXXXXX",
"###########....$$..222244443333333355552222....2222..%%....XXXXX",
"###########....$$..222244443333333355552222....2222..%%....XXXXX",
"###########......&&222244443333333355552222..**2222**......XXXXX",
"###########......&&222244443333333355552222..**2222**......XXXXX",
"###########....2222555533334444555555552222222266662222....XXXXX",
"###########....2222555533334444555555552222222266662222....XXXXX",
"###########....2222555533334444555555552222222266662222....XXXXX",
"###########....2222555533334444555555552222222266662222....XXXXX",
"#######....==..2222555555556666666666662222333355552222....XXXXX",
"#######....==..2222555555556666666666662222333355552222....XXXXX",
"#######......&&2222555555556666666666662222333355552222....XXXXX",
"#######......&&2222555555556666666666662222333355552222....XXXXX",
"#######....22225555333333336666666666663333555566662222..--....X",
"#######....22225555333333336666666666663333555566662222..--....X",
"#######....22225555333333336666666666663333555566662222**......X",
"#######....22225555333333336666666666663333555566662222**......X",
"###....--..222255553333444466666666666666663333555566662222....X",
"###....--..222255553333444466666666666666663333555566662222....X",
"###......**222255553333444466666666666666663333555566662222....X",
"###......**222255553333444466666666666666663333555566662222....X",
"###....2222666655553333555566664444444466665555555566662222.....",
"###....2222666655553333555566664444444466665555555566662222.....",
"###....2222666655553333555566664444444466665555555566662222.....",
"###....2222666655553333555566664444444466665555555566662222.....",
"###....2222666655553333444466666666444444444444555566662222.....",
"###....2222666655553333444466666666444444444444555566662222.....",
"###....2222666655553333444466666666444444444444555566662222.....",
"###....2222666655553333444466666666444444444444555566662222.....",
"###....2222666644444444555566664444666644444444666666662222.....",
"###....2222666644444444555566664444666644444444666666662222.....",
"###....2222666644444444555566664444666644444444666666662222.....",
"###....2222666644444444555566664444666644444444666666662222.....",
"...==..2222555533334444666644444444666655555555555555552222.....",
"...==..2222555533334444666644444444666655555555555555552222.....",
".....&&2222555533334444666644444444666655555555555555552222.....",
".....&&2222555533334444666644444444666655555555555555552222.....",
"...22225555444444445555666644444444666666665555555566662222.....",
"...22225555444444445555666644444444666666665555555566662222.....",
"...22225555444444445555666644444444666666665555555566662222.....",
"...22225555444444445555666644444444666666665555555566662222.....",
"...22226666555555555555666655555555666666665555555566662222....;",
"...22226666555555555555666655555555666666665555555566662222....;",
"...22226666555555555555666655555555666666665555555566662222....;",
"...22226666555555555555666655555555666666665555555566662222....;",
".....**222222222222222222222222222222222222222222222222**.......",
".....**222222222222222222222222222222222222222222222222**.......",
"...%%..222222222222222222222222222222222222222222222222..%%.....",
"...%%..222222222222222222222222222222222222222222222222..%%.....",
"   ........................................................     ",
"   ........................................................     ",
"   ....................::>>>>,,<<..........................     ",
"   ....................::>>>>,,<<..........................     ",
"...................>>>>11>>77772222222222222222................."
};
